<svg xmlns="http://www.w3.org/2000/svg" xmlns:xlink="http://www.w3.org/1999/xlink" width="300" zoomAndPan="magnify" viewBox="0 0 224.87999 112.499997" height="150" preserveAspectRatio="xMidYMid meet" version="1.0"><defs><g/><clipPath id="6f0fdbc120"><path d="M 5 18.820312 L 54.464844 18.820312 L 54.464844 95.730469 L 5 95.730469 Z M 5 18.820312 " clip-rule="nonzero"/></clipPath><clipPath id="1bdcdb57f5"><path d="M 201 17 L 212 17 L 212 33 L 201 33 Z M 201 17 " clip-rule="nonzero"/></clipPath><clipPath id="06cd3474cd"><path d="M 215.28125 29.960938 L 206.648438 34.402344 L 199.476562 20.460938 L 208.105469 16.019531 Z M 215.28125 29.960938 " clip-rule="nonzero"/></clipPath><clipPath id="6cff186c45"><path d="M 215.28125 29.960938 L 206.648438 34.402344 L 199.476562 20.460938 L 208.105469 16.019531 Z M 215.28125 29.960938 " clip-rule="nonzero"/></clipPath><clipPath id="81907e211d"><path d="M 204 19 L 211 19 L 211 29 L 204 29 Z M 204 19 " clip-rule="nonzero"/></clipPath><clipPath id="42532f536f"><path d="M 215.28125 29.960938 L 206.648438 34.402344 L 199.476562 20.460938 L 208.105469 16.019531 Z M 215.28125 29.960938 " clip-rule="nonzero"/></clipPath><clipPath id="7d469d52a2"><path d="M 215.28125 29.960938 L 206.648438 34.402344 L 199.476562 20.460938 L 208.105469 16.019531 Z M 215.28125 29.960938 " clip-rule="nonzero"/></clipPath><clipPath id="89a8994328"><path d="M 209 17 L 219 17 L 219 33 L 209 33 Z M 209 17 " clip-rule="nonzero"/></clipPath><clipPath id="5def2a5b6f"><path d="M 216.480469 33.480469 L 207.003906 31.378906 L 210.402344 16.070312 L 219.878906 18.171875 Z M 216.480469 33.480469 " clip-rule="nonzero"/></clipPath><clipPath id="9e7a59f515"><path d="M 206.664062 31.304688 L 216.140625 33.40625 L 219.535156 18.097656 L 210.058594 15.996094 Z M 206.664062 31.304688 " clip-rule="nonzero"/></clipPath><clipPath id="d7afe3f6c5"><path d="M 209 19 L 216 19 L 216 29 L 209 29 Z M 209 19 " clip-rule="nonzero"/></clipPath><clipPath id="6744cf3db8"><path d="M 216.480469 33.480469 L 207.003906 31.378906 L 210.402344 16.070312 L 219.878906 18.171875 Z M 216.480469 33.480469 " clip-rule="nonzero"/></clipPath><clipPath id="738a380f2f"><path d="M 206.664062 31.304688 L 216.140625 33.40625 L 219.535156 18.097656 L 210.058594 15.996094 Z M 206.664062 31.304688 " clip-rule="nonzero"/></clipPath></defs><g clip-path="url(#6f0fdbc120)"><path fill="#061648" d="M 28.246094 18.820312 C 24.1875 30.894531 28.144531 40.585938 33.523438 48.082031 C 38.382812 54.859375 43.121094 61.144531 43.121094 68.457031 C 43.121094 79.710938 33.964844 88.867188 22.710938 88.867188 C 15.550781 88.867188 9.242188 85.160156 5.597656 79.566406 C 9.296875 89.019531 18.5 95.726562 29.242188 95.726562 C 43.238281 95.726562 54.625 84.34375 54.625 70.347656 C 54.625 65.804688 53.152344 61.570312 50.957031 57.40625 C 43.875 43.949219 27.082031 38.726562 28.246094 18.820312 " fill-opacity="1" fill-rule="nonzero"/></g><path fill="#94dcf6" d="M 14.484375 55.605469 C 8.238281 72.144531 15.257812 80.199219 15.257812 80.199219 C 4.429688 70.996094 14.484375 55.605469 14.484375 55.605469 Z M 31.839844 53.457031 C 28.378906 48.75 24.511719 43.492188 22.734375 36.945312 C 18.503906 42.679688 7.359375 58.8125 7.359375 69.429688 C 7.359375 78.25 14.539062 85.425781 23.363281 85.425781 C 32.183594 85.425781 39.363281 78.25 39.363281 69.429688 C 39.363281 63.695312 35.707031 58.722656 31.839844 53.457031 " fill-opacity="1" fill-rule="nonzero"/><g fill="#ffffff" fill-opacity="1"><g transform="translate(55.763278, 64.589254)"><g><path d="M 13 -16.328125 C 13.96875 -16.328125 14.796875 -16.445312 15.484375 -16.6875 C 16.171875 -16.9375 16.734375 -17.28125 17.171875 -17.71875 C 17.609375 -18.15625 17.921875 -18.664062 18.109375 -19.25 C 18.304688 -19.832031 18.40625 -20.460938 18.40625 -21.140625 C 18.40625 -22.492188 17.960938 -23.550781 17.078125 -24.3125 C 16.203125 -25.070312 14.84375 -25.453125 13 -25.453125 L 10.125 -25.453125 L 10.125 -16.328125 Z M 28.1875 0 L 21.71875 0 C 20.519531 0 19.65625 -0.453125 19.125 -1.359375 L 14.015625 -10.296875 C 13.773438 -10.671875 13.503906 -10.945312 13.203125 -11.125 C 12.910156 -11.300781 12.488281 -11.390625 11.9375 -11.390625 L 10.125 -11.390625 L 10.125 0 L 2.984375 0 L 2.984375 -30.796875 L 13 -30.796875 C 15.226562 -30.796875 17.128906 -30.566406 18.703125 -30.109375 C 20.273438 -29.648438 21.554688 -29.007812 22.546875 -28.1875 C 23.535156 -27.375 24.253906 -26.410156 24.703125 -25.296875 C 25.160156 -24.191406 25.390625 -22.984375 25.390625 -21.671875 C 25.390625 -20.671875 25.253906 -19.722656 24.984375 -18.828125 C 24.722656 -17.941406 24.328125 -17.125 23.796875 -16.375 C 23.273438 -15.625 22.628906 -14.953125 21.859375 -14.359375 C 21.097656 -13.765625 20.21875 -13.273438 19.21875 -12.890625 C 19.6875 -12.648438 20.125 -12.347656 20.53125 -11.984375 C 20.9375 -11.628906 21.300781 -11.207031 21.625 -10.71875 Z M 28.1875 0 "/></g></g></g><g fill="#ffffff" fill-opacity="1"><g transform="translate(83.545867, 64.589254)"><g><path d="M 12.328125 -22.265625 C 13.984375 -22.265625 15.492188 -22.003906 16.859375 -21.484375 C 18.234375 -20.960938 19.410156 -20.210938 20.390625 -19.234375 C 21.367188 -18.265625 22.128906 -17.082031 22.671875 -15.6875 C 23.210938 -14.300781 23.484375 -12.742188 23.484375 -11.015625 C 23.484375 -9.265625 23.210938 -7.6875 22.671875 -6.28125 C 22.128906 -4.882812 21.367188 -3.695312 20.390625 -2.71875 C 19.410156 -1.738281 18.234375 -0.984375 16.859375 -0.453125 C 15.492188 0.078125 13.984375 0.34375 12.328125 0.34375 C 10.648438 0.34375 9.125 0.078125 7.75 -0.453125 C 6.375 -0.984375 5.1875 -1.738281 4.1875 -2.71875 C 3.195312 -3.695312 2.429688 -4.882812 1.890625 -6.28125 C 1.347656 -7.6875 1.078125 -9.265625 1.078125 -11.015625 C 1.078125 -12.742188 1.347656 -14.300781 1.890625 -15.6875 C 2.429688 -17.082031 3.195312 -18.265625 4.1875 -19.234375 C 5.1875 -20.210938 6.375 -20.960938 7.75 -21.484375 C 9.125 -22.003906 10.648438 -22.265625 12.328125 -22.265625 Z M 12.328125 -4.53125 C 13.835938 -4.53125 14.945312 -5.0625 15.65625 -6.125 C 16.363281 -7.1875 16.71875 -8.800781 16.71875 -10.96875 C 16.71875 -13.144531 16.363281 -14.757812 15.65625 -15.8125 C 14.945312 -16.875 13.835938 -17.40625 12.328125 -17.40625 C 10.773438 -17.40625 9.640625 -16.875 8.921875 -15.8125 C 8.203125 -14.757812 7.84375 -13.144531 7.84375 -10.96875 C 7.84375 -8.800781 8.203125 -7.1875 8.921875 -6.125 C 9.640625 -5.0625 10.773438 -4.53125 12.328125 -4.53125 Z M 12.328125 -4.53125 "/></g></g></g><g fill="#ffffff" fill-opacity="1"><g transform="translate(108.095932, 64.589254)"><g><path d="M 16.15625 -17.125 C 15.976562 -16.851562 15.796875 -16.660156 15.609375 -16.546875 C 15.421875 -16.441406 15.179688 -16.390625 14.890625 -16.390625 C 14.578125 -16.390625 14.265625 -16.453125 13.953125 -16.578125 C 13.640625 -16.710938 13.300781 -16.859375 12.9375 -17.015625 C 12.582031 -17.171875 12.179688 -17.316406 11.734375 -17.453125 C 11.285156 -17.585938 10.769531 -17.65625 10.1875 -17.65625 C 9.351562 -17.65625 8.710938 -17.492188 8.265625 -17.171875 C 7.828125 -16.859375 7.609375 -16.421875 7.609375 -15.859375 C 7.609375 -15.453125 7.753906 -15.113281 8.046875 -14.84375 C 8.335938 -14.570312 8.722656 -14.332031 9.203125 -14.125 C 9.679688 -13.925781 10.222656 -13.734375 10.828125 -13.546875 C 11.429688 -13.367188 12.050781 -13.164062 12.6875 -12.9375 C 13.320312 -12.707031 13.941406 -12.441406 14.546875 -12.140625 C 15.148438 -11.835938 15.691406 -11.460938 16.171875 -11.015625 C 16.648438 -10.578125 17.035156 -10.039062 17.328125 -9.40625 C 17.617188 -8.769531 17.765625 -8.007812 17.765625 -7.125 C 17.765625 -6.039062 17.566406 -5.039062 17.171875 -4.125 C 16.773438 -3.207031 16.1875 -2.414062 15.40625 -1.75 C 14.625 -1.09375 13.65625 -0.578125 12.5 -0.203125 C 11.351562 0.160156 10.035156 0.34375 8.546875 0.34375 C 7.796875 0.34375 7.046875 0.269531 6.296875 0.125 C 5.546875 -0.0078125 4.820312 -0.195312 4.125 -0.4375 C 3.4375 -0.675781 2.796875 -0.960938 2.203125 -1.296875 C 1.609375 -1.628906 1.097656 -1.988281 0.671875 -2.375 L 2.203125 -4.78125 C 2.367188 -5.0625 2.582031 -5.28125 2.84375 -5.4375 C 3.101562 -5.601562 3.4375 -5.6875 3.84375 -5.6875 C 4.226562 -5.6875 4.570312 -5.597656 4.875 -5.421875 C 5.175781 -5.253906 5.503906 -5.070312 5.859375 -4.875 C 6.210938 -4.6875 6.625 -4.503906 7.09375 -4.328125 C 7.5625 -4.160156 8.15625 -4.078125 8.875 -4.078125 C 9.382812 -4.078125 9.816406 -4.128906 10.171875 -4.234375 C 10.523438 -4.335938 10.804688 -4.484375 11.015625 -4.671875 C 11.222656 -4.859375 11.375 -5.0625 11.46875 -5.28125 C 11.570312 -5.507812 11.625 -5.742188 11.625 -5.984375 C 11.625 -6.421875 11.472656 -6.78125 11.171875 -7.0625 C 10.878906 -7.34375 10.492188 -7.582031 10.015625 -7.78125 C 9.535156 -7.988281 8.988281 -8.179688 8.375 -8.359375 C 7.769531 -8.535156 7.148438 -8.734375 6.515625 -8.953125 C 5.878906 -9.179688 5.253906 -9.453125 4.640625 -9.765625 C 4.023438 -10.085938 3.476562 -10.492188 3 -10.984375 C 2.519531 -11.472656 2.128906 -12.066406 1.828125 -12.765625 C 1.535156 -13.472656 1.390625 -14.328125 1.390625 -15.328125 C 1.390625 -16.253906 1.566406 -17.132812 1.921875 -17.96875 C 2.285156 -18.8125 2.828125 -19.550781 3.546875 -20.1875 C 4.265625 -20.820312 5.164062 -21.328125 6.25 -21.703125 C 7.34375 -22.078125 8.613281 -22.265625 10.0625 -22.265625 C 10.851562 -22.265625 11.617188 -22.191406 12.359375 -22.046875 C 13.097656 -21.910156 13.789062 -21.710938 14.4375 -21.453125 C 15.082031 -21.203125 15.671875 -20.90625 16.203125 -20.5625 C 16.742188 -20.21875 17.21875 -19.835938 17.625 -19.421875 Z M 16.15625 -17.125 "/></g></g></g><g fill="#ffffff" fill-opacity="1"><g transform="translate(126.920484, 64.589254)"><g><path d="M 13.53125 -8.921875 C 12.21875 -8.867188 11.140625 -8.753906 10.296875 -8.578125 C 9.453125 -8.410156 8.78125 -8.195312 8.28125 -7.9375 C 7.789062 -7.6875 7.445312 -7.398438 7.25 -7.078125 C 7.0625 -6.753906 6.96875 -6.40625 6.96875 -6.03125 C 6.96875 -5.28125 7.171875 -4.753906 7.578125 -4.453125 C 7.992188 -4.148438 8.597656 -4 9.390625 -4 C 10.234375 -4 10.972656 -4.144531 11.609375 -4.4375 C 12.242188 -4.738281 12.882812 -5.21875 13.53125 -5.875 Z M 1.734375 -18.875 C 3.054688 -20.050781 4.523438 -20.921875 6.140625 -21.484375 C 7.753906 -22.054688 9.484375 -22.34375 11.328125 -22.34375 C 12.648438 -22.34375 13.84375 -22.128906 14.90625 -21.703125 C 15.976562 -21.273438 16.882812 -20.675781 17.625 -19.90625 C 18.363281 -19.132812 18.929688 -18.21875 19.328125 -17.15625 C 19.722656 -16.101562 19.921875 -14.953125 19.921875 -13.703125 L 19.921875 0 L 16.90625 0 C 16.289062 0 15.820312 -0.0820312 15.5 -0.25 C 15.1875 -0.414062 14.925781 -0.769531 14.71875 -1.3125 L 14.25 -2.515625 C 13.695312 -2.046875 13.164062 -1.632812 12.65625 -1.28125 C 12.15625 -0.9375 11.632812 -0.640625 11.09375 -0.390625 C 10.550781 -0.140625 9.972656 0.0390625 9.359375 0.15625 C 8.742188 0.28125 8.0625 0.34375 7.3125 0.34375 C 6.3125 0.34375 5.398438 0.210938 4.578125 -0.046875 C 3.765625 -0.304688 3.070312 -0.691406 2.5 -1.203125 C 1.9375 -1.710938 1.5 -2.34375 1.1875 -3.09375 C 0.875 -3.851562 0.71875 -4.722656 0.71875 -5.703125 C 0.71875 -6.492188 0.914062 -7.296875 1.3125 -8.109375 C 1.707031 -8.921875 2.390625 -9.660156 3.359375 -10.328125 C 4.328125 -10.992188 5.632812 -11.550781 7.28125 -12 C 8.9375 -12.457031 11.019531 -12.710938 13.53125 -12.765625 L 13.53125 -13.703125 C 13.53125 -14.984375 13.265625 -15.90625 12.734375 -16.46875 C 12.203125 -17.039062 11.453125 -17.328125 10.484375 -17.328125 C 9.710938 -17.328125 9.078125 -17.242188 8.578125 -17.078125 C 8.085938 -16.910156 7.648438 -16.71875 7.265625 -16.5 C 6.878906 -16.289062 6.5 -16.101562 6.125 -15.9375 C 5.757812 -15.769531 5.320312 -15.6875 4.8125 -15.6875 C 4.363281 -15.6875 3.984375 -15.796875 3.671875 -16.015625 C 3.367188 -16.242188 3.117188 -16.515625 2.921875 -16.828125 Z M 1.734375 -18.875 "/></g></g></g><g fill="#ffffff" fill-opacity="1"><g transform="translate(148.787394, 64.589254)"><g/></g></g><g fill="#ffffff" fill-opacity="1"><g transform="translate(158.548279, 64.589254)"><g><path d="M 20 -24.546875 C 19.789062 -24.203125 19.566406 -23.945312 19.328125 -23.78125 C 19.097656 -23.613281 18.800781 -23.53125 18.4375 -23.53125 C 18.113281 -23.53125 17.765625 -23.628906 17.390625 -23.828125 C 17.015625 -24.035156 16.585938 -24.265625 16.109375 -24.515625 C 15.640625 -24.773438 15.101562 -25.003906 14.5 -25.203125 C 13.894531 -25.410156 13.207031 -25.515625 12.4375 -25.515625 C 11.09375 -25.515625 10.09375 -25.226562 9.4375 -24.65625 C 8.78125 -24.082031 8.453125 -23.3125 8.453125 -22.34375 C 8.453125 -21.726562 8.648438 -21.210938 9.046875 -20.796875 C 9.441406 -20.390625 9.957031 -20.035156 10.59375 -19.734375 C 11.238281 -19.441406 11.972656 -19.171875 12.796875 -18.921875 C 13.617188 -18.679688 14.457031 -18.410156 15.3125 -18.109375 C 16.175781 -17.804688 17.019531 -17.445312 17.84375 -17.03125 C 18.675781 -16.625 19.410156 -16.101562 20.046875 -15.46875 C 20.691406 -14.84375 21.210938 -14.070312 21.609375 -13.15625 C 22.003906 -12.25 22.203125 -11.15625 22.203125 -9.875 C 22.203125 -8.445312 21.953125 -7.113281 21.453125 -5.875 C 20.960938 -4.632812 20.25 -3.550781 19.3125 -2.625 C 18.375 -1.707031 17.21875 -0.984375 15.84375 -0.453125 C 14.46875 0.078125 12.90625 0.34375 11.15625 0.34375 C 10.195312 0.34375 9.222656 0.242188 8.234375 0.046875 C 7.242188 -0.148438 6.28125 -0.425781 5.34375 -0.78125 C 4.414062 -1.144531 3.539062 -1.570312 2.71875 -2.0625 C 1.90625 -2.5625 1.195312 -3.113281 0.59375 -3.71875 L 2.703125 -7.0625 C 2.867188 -7.300781 3.085938 -7.5 3.359375 -7.65625 C 3.640625 -7.820312 3.941406 -7.90625 4.265625 -7.90625 C 4.691406 -7.90625 5.117188 -7.769531 5.546875 -7.5 C 5.972656 -7.238281 6.457031 -6.941406 7 -6.609375 C 7.550781 -6.285156 8.175781 -5.988281 8.875 -5.71875 C 9.582031 -5.457031 10.414062 -5.328125 11.375 -5.328125 C 12.664062 -5.328125 13.671875 -5.613281 14.390625 -6.1875 C 15.109375 -6.757812 15.46875 -7.664062 15.46875 -8.90625 C 15.46875 -9.625 15.269531 -10.207031 14.875 -10.65625 C 14.488281 -11.101562 13.972656 -11.472656 13.328125 -11.765625 C 12.691406 -12.066406 11.960938 -12.328125 11.140625 -12.546875 C 10.328125 -12.773438 9.488281 -13.023438 8.625 -13.296875 C 7.757812 -13.578125 6.921875 -13.914062 6.109375 -14.3125 C 5.296875 -14.71875 4.566406 -15.25 3.921875 -15.90625 C 3.273438 -16.5625 2.753906 -17.378906 2.359375 -18.359375 C 1.972656 -19.335938 1.78125 -20.546875 1.78125 -21.984375 C 1.78125 -23.140625 2.007812 -24.265625 2.46875 -25.359375 C 2.9375 -26.460938 3.617188 -27.441406 4.515625 -28.296875 C 5.421875 -29.160156 6.53125 -29.847656 7.84375 -30.359375 C 9.15625 -30.878906 10.65625 -31.140625 12.34375 -31.140625 C 13.289062 -31.140625 14.210938 -31.066406 15.109375 -30.921875 C 16.003906 -30.773438 16.851562 -30.554688 17.65625 -30.265625 C 18.457031 -29.972656 19.207031 -29.625 19.90625 -29.21875 C 20.601562 -28.820312 21.226562 -28.367188 21.78125 -27.859375 Z M 20 -24.546875 "/></g></g></g><g fill="#ffffff" fill-opacity="1"><g transform="translate(181.95748, 64.589254)"><g><path d="M 21.875 -21.921875 L 21.875 0 L 17.828125 0 C 17.003906 0 16.46875 -0.363281 16.21875 -1.09375 L 15.828125 -2.375 C 15.410156 -1.957031 14.972656 -1.582031 14.515625 -1.25 C 14.066406 -0.925781 13.582031 -0.644531 13.0625 -0.40625 C 12.550781 -0.175781 11.992188 0.00390625 11.390625 0.140625 C 10.796875 0.273438 10.148438 0.34375 9.453125 0.34375 C 8.253906 0.34375 7.191406 0.132812 6.265625 -0.28125 C 5.347656 -0.695312 4.570312 -1.28125 3.9375 -2.03125 C 3.300781 -2.78125 2.820312 -3.660156 2.5 -4.671875 C 2.175781 -5.679688 2.015625 -6.796875 2.015625 -8.015625 L 2.015625 -21.921875 L 8.5625 -21.921875 L 8.5625 -8.015625 C 8.5625 -6.929688 8.804688 -6.09375 9.296875 -5.5 C 9.796875 -4.90625 10.523438 -4.609375 11.484375 -4.609375 C 12.203125 -4.609375 12.875 -4.757812 13.5 -5.0625 C 14.125 -5.363281 14.734375 -5.773438 15.328125 -6.296875 L 15.328125 -21.921875 Z M 21.875 -21.921875 "/></g></g></g><g fill="#ffffff" fill-opacity="1"><g transform="translate(206.042743, 64.589254)"><g><path d="M 8.765625 -31.640625 L 8.765625 0 L 2.21875 0 L 2.21875 -31.640625 Z M 8.765625 -31.640625 "/></g></g></g><g fill="#94dcf6" fill-opacity="1"><g transform="translate(58.971493, 82.71777)"><g><path d="M 7.375 0 L 5.765625 0 L 6.25 -3.90625 L 2.515625 -3.90625 L 2.03125 0 L 0.4375 0 L 1.515625 -8.875 L 3.125 -8.875 L 2.640625 -5.03125 L 6.390625 -5.03125 L 6.859375 -8.875 L 8.46875 -8.875 Z M 7.375 0 "/></g></g></g><g fill="#94dcf6" fill-opacity="1"><g transform="translate(74.188574, 82.71777)"><g><path d="M 2.203125 0 L 0.609375 0 L 1.6875 -8.875 L 3.296875 -8.875 Z M 2.203125 0 "/></g></g></g><g fill="#94dcf6" fill-opacity="1"><g transform="translate(84.419248, 82.71777)"><g><path d="M 4.34375 -1.171875 C 4.675781 -1.171875 4.96875 -1.203125 5.21875 -1.265625 C 5.46875 -1.328125 5.710938 -1.414062 5.953125 -1.53125 L 6.15625 -3.234375 L 5.171875 -3.234375 C 5.078125 -3.234375 5.003906 -3.253906 4.953125 -3.296875 C 4.898438 -3.347656 4.875 -3.410156 4.875 -3.484375 L 4.984375 -4.421875 L 7.75 -4.421875 L 7.3125 -0.859375 C 6.851562 -0.535156 6.363281 -0.296875 5.84375 -0.140625 C 5.332031 0.015625 4.742188 0.09375 4.078125 0.09375 C 3.523438 0.09375 3.023438 0 2.578125 -0.1875 C 2.140625 -0.382812 1.757812 -0.660156 1.4375 -1.015625 C 1.125 -1.367188 0.878906 -1.785156 0.703125 -2.265625 C 0.535156 -2.742188 0.453125 -3.269531 0.453125 -3.84375 C 0.453125 -4.34375 0.503906 -4.816406 0.609375 -5.265625 C 0.722656 -5.710938 0.878906 -6.125 1.078125 -6.5 C 1.285156 -6.882812 1.53125 -7.226562 1.8125 -7.53125 C 2.101562 -7.832031 2.425781 -8.09375 2.78125 -8.3125 C 3.132812 -8.53125 3.515625 -8.695312 3.921875 -8.8125 C 4.328125 -8.925781 4.757812 -8.984375 5.21875 -8.984375 C 5.570312 -8.984375 5.894531 -8.945312 6.1875 -8.875 C 6.488281 -8.8125 6.753906 -8.722656 6.984375 -8.609375 C 7.222656 -8.503906 7.4375 -8.378906 7.625 -8.234375 C 7.820312 -8.085938 7.992188 -7.929688 8.140625 -7.765625 L 7.625 -7.109375 C 7.507812 -6.960938 7.378906 -6.890625 7.234375 -6.890625 C 7.140625 -6.890625 7.046875 -6.914062 6.953125 -6.96875 C 6.816406 -7.0625 6.6875 -7.144531 6.5625 -7.21875 C 6.4375 -7.300781 6.300781 -7.367188 6.15625 -7.421875 C 6.007812 -7.484375 5.851562 -7.53125 5.6875 -7.5625 C 5.519531 -7.59375 5.320312 -7.609375 5.09375 -7.609375 C 4.65625 -7.609375 4.25 -7.519531 3.875 -7.34375 C 3.507812 -7.164062 3.191406 -6.914062 2.921875 -6.59375 C 2.660156 -6.269531 2.457031 -5.878906 2.3125 -5.421875 C 2.164062 -4.960938 2.09375 -4.453125 2.09375 -3.890625 C 2.09375 -3.460938 2.144531 -3.082031 2.25 -2.75 C 2.351562 -2.414062 2.503906 -2.128906 2.703125 -1.890625 C 2.898438 -1.660156 3.132812 -1.484375 3.40625 -1.359375 C 3.6875 -1.234375 4 -1.171875 4.34375 -1.171875 Z M 4.34375 -1.171875 "/></g></g></g><g fill="#94dcf6" fill-opacity="1"><g transform="translate(99.23716, 82.71777)"><g><path d="M 2.203125 0 L 0.609375 0 L 1.6875 -8.875 L 3.296875 -8.875 Z M 2.203125 0 "/></g></g></g><g fill="#94dcf6" fill-opacity="1"><g transform="translate(109.467833, 82.71777)"><g><path d="M 6.703125 -8.875 L 6.546875 -7.609375 L 2.96875 -7.609375 L 2.65625 -5.078125 L 5.46875 -5.078125 L 5.3125 -3.859375 L 2.5 -3.859375 L 2.1875 -1.265625 L 5.765625 -1.265625 L 5.609375 0 L 0.4375 0 L 1.515625 -8.875 Z M 6.703125 -8.875 "/></g></g></g><g fill="#94dcf6" fill-opacity="1"><g transform="translate(122.590864, 82.71777)"><g><path d="M 2.359375 -8.875 C 2.429688 -8.875 2.488281 -8.867188 2.53125 -8.859375 C 2.582031 -8.859375 2.625 -8.847656 2.65625 -8.828125 C 2.695312 -8.816406 2.726562 -8.789062 2.75 -8.75 C 2.78125 -8.71875 2.8125 -8.675781 2.84375 -8.625 L 6.3125 -2.5625 C 6.3125 -2.675781 6.316406 -2.789062 6.328125 -2.90625 C 6.335938 -3.019531 6.351562 -3.125 6.375 -3.21875 L 7.0625 -8.875 L 8.46875 -8.875 L 7.375 0 L 6.546875 0 C 6.429688 0 6.328125 -0.015625 6.234375 -0.046875 C 6.148438 -0.0859375 6.082031 -0.164062 6.03125 -0.28125 L 2.578125 -6.34375 C 2.578125 -6.238281 2.570312 -6.140625 2.5625 -6.046875 C 2.550781 -5.953125 2.539062 -5.867188 2.53125 -5.796875 L 1.84375 0 L 0.4375 0 L 1.515625 -8.875 Z M 2.359375 -8.875 "/></g></g></g><g fill="#94dcf6" fill-opacity="1"><g transform="translate(137.807947, 82.71777)"><g><path d="M 2.203125 0 L 0.609375 0 L 1.6875 -8.875 L 3.296875 -8.875 Z M 2.203125 0 "/></g></g></g><g fill="#94dcf6" fill-opacity="1"><g transform="translate(148.038621, 82.71777)"><g><path d="M 7.390625 -8.875 L 7.328125 -8.375 C 7.316406 -8.3125 7.296875 -8.25 7.265625 -8.1875 C 7.234375 -8.125 7.191406 -8.0625 7.140625 -8 L 2.234375 -1.265625 L 6.359375 -1.265625 L 6.203125 0 L -0.046875 0 L 0.015625 -0.484375 C 0.0234375 -0.554688 0.046875 -0.625 0.078125 -0.6875 C 0.109375 -0.75 0.144531 -0.804688 0.1875 -0.859375 L 5.109375 -7.609375 L 1.171875 -7.609375 L 1.3125 -8.875 Z M 7.390625 -8.875 "/></g></g></g><g fill="#94dcf6" fill-opacity="1"><g transform="translate(161.665205, 82.71777)"><g><path d="M 7.59375 0 L 6.359375 0 C 6.222656 0 6.113281 -0.03125 6.03125 -0.09375 C 5.945312 -0.164062 5.894531 -0.253906 5.875 -0.359375 L 5.515625 -2.21875 L 2.203125 -2.21875 L 1.375 -0.359375 C 1.332031 -0.265625 1.257812 -0.179688 1.15625 -0.109375 C 1.050781 -0.0351562 0.9375 0 0.8125 0 L -0.4375 0 L 3.84375 -8.875 L 5.484375 -8.875 Z M 2.703125 -3.34375 L 5.28125 -3.34375 L 4.671875 -6.375 C 4.640625 -6.519531 4.609375 -6.675781 4.578125 -6.84375 C 4.546875 -7.007812 4.515625 -7.195312 4.484375 -7.40625 C 4.410156 -7.195312 4.332031 -7.003906 4.25 -6.828125 C 4.175781 -6.660156 4.109375 -6.507812 4.046875 -6.375 Z M 2.703125 -3.34375 "/></g></g></g><g fill="#94dcf6" fill-opacity="1"><g transform="translate(176.212926, 82.71777)"><g><path d="M 3.046875 1.40625 C 3.078125 1.40625 3.101562 1.410156 3.125 1.421875 C 3.15625 1.429688 3.1875 1.441406 3.21875 1.453125 C 3.25 1.472656 3.285156 1.488281 3.328125 1.5 C 3.367188 1.507812 3.414062 1.515625 3.46875 1.515625 C 3.601562 1.515625 3.703125 1.476562 3.765625 1.40625 C 3.828125 1.34375 3.859375 1.269531 3.859375 1.1875 C 3.859375 1.082031 3.796875 1.003906 3.671875 0.953125 C 3.554688 0.898438 3.363281 0.859375 3.09375 0.828125 L 3.390625 0.0625 C 2.929688 0.0078125 2.515625 -0.117188 2.140625 -0.328125 C 1.773438 -0.546875 1.46875 -0.820312 1.21875 -1.15625 C 0.96875 -1.5 0.773438 -1.890625 0.640625 -2.328125 C 0.515625 -2.773438 0.453125 -3.253906 0.453125 -3.765625 C 0.453125 -4.273438 0.503906 -4.757812 0.609375 -5.21875 C 0.722656 -5.675781 0.882812 -6.097656 1.09375 -6.484375 C 1.300781 -6.867188 1.546875 -7.210938 1.828125 -7.515625 C 2.117188 -7.828125 2.4375 -8.09375 2.78125 -8.3125 C 3.125 -8.53125 3.5 -8.695312 3.90625 -8.8125 C 4.3125 -8.925781 4.734375 -8.984375 5.171875 -8.984375 C 5.492188 -8.984375 5.785156 -8.953125 6.046875 -8.890625 C 6.316406 -8.828125 6.5625 -8.742188 6.78125 -8.640625 C 7 -8.535156 7.191406 -8.40625 7.359375 -8.25 C 7.535156 -8.101562 7.691406 -7.9375 7.828125 -7.75 L 7.28125 -7.09375 C 7.238281 -7.039062 7.1875 -6.992188 7.125 -6.953125 C 7.070312 -6.921875 7.003906 -6.90625 6.921875 -6.90625 C 6.835938 -6.90625 6.753906 -6.941406 6.671875 -7.015625 C 6.585938 -7.085938 6.484375 -7.164062 6.359375 -7.25 C 6.234375 -7.34375 6.070312 -7.425781 5.875 -7.5 C 5.675781 -7.570312 5.414062 -7.609375 5.09375 -7.609375 C 4.664062 -7.609375 4.269531 -7.519531 3.90625 -7.34375 C 3.539062 -7.175781 3.222656 -6.929688 2.953125 -6.609375 C 2.679688 -6.285156 2.46875 -5.894531 2.3125 -5.4375 C 2.164062 -4.976562 2.09375 -4.46875 2.09375 -3.90625 C 2.09375 -3.488281 2.144531 -3.113281 2.25 -2.78125 C 2.351562 -2.457031 2.492188 -2.179688 2.671875 -1.953125 C 2.859375 -1.722656 3.078125 -1.546875 3.328125 -1.421875 C 3.585938 -1.304688 3.863281 -1.25 4.15625 -1.25 C 4.40625 -1.25 4.625 -1.269531 4.8125 -1.3125 C 5 -1.351562 5.160156 -1.398438 5.296875 -1.453125 C 5.441406 -1.515625 5.5625 -1.578125 5.65625 -1.640625 C 5.75 -1.710938 5.832031 -1.78125 5.90625 -1.84375 C 5.988281 -1.90625 6.054688 -1.957031 6.109375 -2 C 6.171875 -2.039062 6.226562 -2.0625 6.28125 -2.0625 C 6.332031 -2.0625 6.375 -2.050781 6.40625 -2.03125 C 6.4375 -2.007812 6.460938 -1.988281 6.484375 -1.96875 L 7.046875 -1.265625 C 6.691406 -0.867188 6.289062 -0.554688 5.84375 -0.328125 C 5.394531 -0.0976562 4.878906 0.0351562 4.296875 0.078125 L 4.203125 0.359375 C 4.503906 0.429688 4.710938 0.535156 4.828125 0.671875 C 4.953125 0.816406 5.015625 0.972656 5.015625 1.140625 C 5.015625 1.296875 4.976562 1.4375 4.90625 1.5625 C 4.832031 1.6875 4.726562 1.789062 4.59375 1.875 C 4.457031 1.96875 4.296875 2.035156 4.109375 2.078125 C 3.921875 2.117188 3.71875 2.140625 3.5 2.140625 C 3.34375 2.140625 3.195312 2.125 3.0625 2.09375 C 2.9375 2.070312 2.804688 2.039062 2.671875 2 L 2.875 1.546875 C 2.90625 1.453125 2.960938 1.40625 3.046875 1.40625 Z M 3.046875 1.40625 "/></g></g></g><g fill="#94dcf6" fill-opacity="1"><g transform="translate(190.293941, 82.71777)"><g><path d="M 7.59375 0 L 6.359375 0 C 6.222656 0 6.113281 -0.03125 6.03125 -0.09375 C 5.945312 -0.164062 5.894531 -0.253906 5.875 -0.359375 L 5.515625 -2.21875 L 2.203125 -2.21875 L 1.375 -0.359375 C 1.332031 -0.265625 1.257812 -0.179688 1.15625 -0.109375 C 1.050781 -0.0351562 0.9375 0 0.8125 0 L -0.4375 0 L 3.84375 -8.875 L 5.484375 -8.875 Z M 2.703125 -3.34375 L 5.28125 -3.34375 L 4.671875 -6.375 C 4.640625 -6.519531 4.609375 -6.675781 4.578125 -6.84375 C 4.546875 -7.007812 4.515625 -7.195312 4.484375 -7.40625 C 4.410156 -7.195312 4.332031 -7.003906 4.25 -6.828125 C 4.175781 -6.660156 4.109375 -6.507812 4.046875 -6.375 Z M 5.546875 -10.40625 C 5.640625 -10.40625 5.71875 -10.4375 5.78125 -10.5 C 5.851562 -10.570312 5.898438 -10.671875 5.921875 -10.796875 L 6.71875 -10.796875 C 6.695312 -10.597656 6.648438 -10.414062 6.578125 -10.25 C 6.503906 -10.09375 6.410156 -9.953125 6.296875 -9.828125 C 6.191406 -9.703125 6.066406 -9.609375 5.921875 -9.546875 C 5.785156 -9.484375 5.628906 -9.453125 5.453125 -9.453125 C 5.316406 -9.453125 5.1875 -9.472656 5.0625 -9.515625 C 4.945312 -9.566406 4.832031 -9.617188 4.71875 -9.671875 C 4.613281 -9.722656 4.515625 -9.773438 4.421875 -9.828125 C 4.328125 -9.878906 4.242188 -9.90625 4.171875 -9.90625 C 4.066406 -9.90625 3.976562 -9.867188 3.90625 -9.796875 C 3.84375 -9.722656 3.804688 -9.617188 3.796875 -9.484375 L 2.984375 -9.484375 C 3.003906 -9.679688 3.050781 -9.863281 3.125 -10.03125 C 3.195312 -10.195312 3.285156 -10.335938 3.390625 -10.453125 C 3.503906 -10.578125 3.628906 -10.671875 3.765625 -10.734375 C 3.910156 -10.804688 4.070312 -10.84375 4.25 -10.84375 C 4.382812 -10.84375 4.515625 -10.816406 4.640625 -10.765625 C 4.765625 -10.722656 4.878906 -10.675781 4.984375 -10.625 C 5.085938 -10.570312 5.1875 -10.519531 5.28125 -10.46875 C 5.375 -10.425781 5.460938 -10.40625 5.546875 -10.40625 Z M 5.546875 -10.40625 "/></g></g></g><g fill="#94dcf6" fill-opacity="1"><g transform="translate(204.841669, 82.71777)"><g><path d="M 8.875 -5.03125 C 8.875 -4.539062 8.816406 -4.070312 8.703125 -3.625 C 8.597656 -3.1875 8.445312 -2.773438 8.25 -2.390625 C 8.050781 -2.015625 7.804688 -1.671875 7.515625 -1.359375 C 7.234375 -1.054688 6.914062 -0.796875 6.5625 -0.578125 C 6.207031 -0.359375 5.820312 -0.191406 5.40625 -0.078125 C 5 0.0351562 4.566406 0.09375 4.109375 0.09375 C 3.546875 0.09375 3.035156 -0.00390625 2.578125 -0.203125 C 2.128906 -0.398438 1.742188 -0.675781 1.421875 -1.03125 C 1.109375 -1.382812 0.867188 -1.800781 0.703125 -2.28125 C 0.535156 -2.757812 0.453125 -3.28125 0.453125 -3.84375 C 0.453125 -4.332031 0.503906 -4.796875 0.609375 -5.234375 C 0.722656 -5.679688 0.878906 -6.09375 1.078125 -6.46875 C 1.285156 -6.851562 1.53125 -7.195312 1.8125 -7.5 C 2.09375 -7.8125 2.410156 -8.078125 2.765625 -8.296875 C 3.117188 -8.515625 3.503906 -8.679688 3.921875 -8.796875 C 4.335938 -8.921875 4.773438 -8.984375 5.234375 -8.984375 C 5.796875 -8.984375 6.300781 -8.878906 6.75 -8.671875 C 7.207031 -8.472656 7.59375 -8.195312 7.90625 -7.84375 C 8.21875 -7.488281 8.457031 -7.070312 8.625 -6.59375 C 8.789062 -6.113281 8.875 -5.59375 8.875 -5.03125 Z M 7.25 -5 C 7.25 -5.394531 7.195312 -5.753906 7.09375 -6.078125 C 6.988281 -6.410156 6.84375 -6.691406 6.65625 -6.921875 C 6.46875 -7.160156 6.234375 -7.34375 5.953125 -7.46875 C 5.679688 -7.59375 5.375 -7.65625 5.03125 -7.65625 C 4.59375 -7.65625 4.191406 -7.566406 3.828125 -7.390625 C 3.460938 -7.210938 3.148438 -6.957031 2.890625 -6.625 C 2.640625 -6.289062 2.441406 -5.890625 2.296875 -5.421875 C 2.160156 -4.960938 2.09375 -4.445312 2.09375 -3.875 C 2.09375 -3.46875 2.140625 -3.101562 2.234375 -2.78125 C 2.328125 -2.457031 2.46875 -2.175781 2.65625 -1.9375 C 2.851562 -1.707031 3.085938 -1.53125 3.359375 -1.40625 C 3.628906 -1.28125 3.9375 -1.21875 4.28125 -1.21875 C 4.726562 -1.21875 5.132812 -1.304688 5.5 -1.484375 C 5.863281 -1.671875 6.175781 -1.925781 6.4375 -2.25 C 6.695312 -2.582031 6.894531 -2.976562 7.03125 -3.4375 C 7.175781 -3.90625 7.25 -4.425781 7.25 -5 Z M 7.25 -5 "/></g></g></g><g clip-path="url(#1bdcdb57f5)"><g clip-path="url(#06cd3474cd)"><g clip-path="url(#6cff186c45)"><path fill="#061648" d="M 211.039062 32.144531 C 210.65625 29.621094 209.0625 28.257812 207.414062 27.414062 C 205.929688 26.652344 204.507812 25.96875 203.835938 24.664062 C 202.804688 22.660156 203.597656 20.1875 205.601562 19.15625 C 206.878906 18.5 208.34375 18.582031 209.503906 19.246094 C 207.980469 17.898438 205.722656 17.546875 203.808594 18.535156 C 201.316406 19.816406 200.332031 22.890625 201.613281 25.382812 C 202.03125 26.191406 202.683594 26.8125 203.453125 27.351562 C 205.949219 29.101562 209.421875 28.492188 211.039062 32.144531 " fill-opacity="1" fill-rule="nonzero"/></g></g></g><g clip-path="url(#81907e211d)"><g clip-path="url(#42532f536f)"><g clip-path="url(#7d469d52a2)"><path fill="#94dcf6" d="M 210.117188 24.328125 C 209.714844 20.808594 207.726562 20.019531 207.726562 20.019531 C 210.496094 20.664062 210.117188 24.328125 210.117188 24.328125 Z M 207.222656 26.300781 C 208.269531 26.824219 209.441406 27.40625 210.359375 28.410156 C 210.585938 27 211.09375 23.105469 210.121094 21.214844 C 209.3125 19.640625 207.375 19.019531 205.800781 19.828125 C 204.230469 20.636719 203.609375 22.574219 204.417969 24.148438 C 204.945312 25.167969 206.050781 25.71875 207.222656 26.300781 " fill-opacity="1" fill-rule="nonzero"/></g></g></g><g clip-path="url(#89a8994328)"><g clip-path="url(#5def2a5b6f)"><g clip-path="url(#9e7a59f515)"><path fill="#061648" d="M 211.320312 32.335938 C 211.050781 29.796875 212.246094 28.074219 213.621094 26.839844 C 214.867188 25.726562 216.066406 24.703125 216.382812 23.273438 C 216.871094 21.070312 215.480469 18.882812 213.277344 18.394531 C 211.878906 18.082031 210.480469 18.535156 209.527344 19.472656 C 210.660156 17.78125 212.75 16.871094 214.851562 17.335938 C 217.589844 17.941406 219.324219 20.664062 218.714844 23.402344 C 218.519531 24.292969 218.046875 25.054688 217.4375 25.773438 C 215.46875 28.101562 211.957031 28.390625 211.320312 32.335938 " fill-opacity="1" fill-rule="nonzero"/></g></g></g><g clip-path="url(#d7afe3f6c5)"><g clip-path="url(#6744cf3db8)"><g clip-path="url(#738a380f2f)"><path fill="#94dcf6" d="M 210.226562 24.542969 C 209.722656 21.039062 211.441406 19.765625 211.441406 19.765625 C 208.925781 21.097656 210.226562 24.542969 210.226562 24.542969 Z M 213.527344 25.71875 C 212.644531 26.488281 211.660156 27.347656 211.027344 28.550781 C 210.449219 27.246094 208.96875 23.609375 209.429688 21.53125 C 209.8125 19.804688 211.53125 18.710938 213.253906 19.09375 C 214.980469 19.476562 216.074219 21.195312 215.691406 22.917969 C 215.441406 24.039062 214.511719 24.855469 213.527344 25.71875 " fill-opacity="1" fill-rule="nonzero"/></g></g></g></svg>